<svg width="73" height="83" viewBox="0 0 73 83" fill="none" xmlns="http://www.w3.org/2000/svg">
<path d="M31.9522 43.5628C31.1529 46.5101 29.6797 49.2318 27.6484 51.5142C25.617 53.7966 23.0828 55.5774 20.2449 56.7167C17.407 57.8561 14.3427 58.3229 11.2928 58.0804C8.2429 57.838 5.29048 56.893 2.66754 55.3196C3.36693 52.7451 4.56621 50.3331 6.19726 48.2205C9.17447 44.4335 13.4398 41.8681 18.186 41.0098C22.9322 40.1514 27.83 41.0597 31.9522 43.5628Z" stroke="#0D4F83" stroke-width="2" stroke-miterlimit="10"/>
<path d="M62.8903 25.1408C65.5136 25.5135 68.0357 26.4073 70.3075 27.7694C69.6081 30.3437 68.4089 32.7555 66.7779 34.868C63.8007 38.6547 59.5354 41.2199 54.7892 42.0782C50.043 42.9364 45.1452 42.0281 41.023 39.5252C42.2696 34.8701 45.1845 30.8343 49.215 28.1831C53.2456 25.5318 58.1115 24.4493 62.8903 25.1408Z" stroke="#0D4F83" stroke-width="2" stroke-miterlimit="10"/>
<path d="M35.7446 46.7466C39.407 50.1924 41.6236 54.762 41.9745 59.5896C42.3253 64.4172 40.786 69.1674 37.6483 72.9403C35.9199 75.0104 33.7554 76.7194 31.2869 77.9629C29.2652 76.0782 27.6655 73.8316 26.5857 71.3605C24.6293 66.8602 24.4811 61.869 26.1691 57.3326C27.8571 52.7962 31.2641 49.0296 35.7446 46.7466Z" stroke="#0D4F83" stroke-width="2" stroke-miterlimit="10"/>
<path d="M63.6985 56.4316C64.6731 58.9163 65.1493 61.5676 65.1002 64.2349C62.1417 65.0112 59.0428 65.0921 56.0469 64.4712C53.0511 63.8503 50.2399 62.5445 47.8343 60.6564C45.4288 58.7683 43.4943 56.3494 42.1829 53.5896C40.8716 50.8299 40.219 47.8046 40.2766 44.7514C44.9347 43.5022 49.8909 44.001 54.2072 46.1535C58.5234 48.3059 61.9003 51.9627 63.6985 56.4316Z" stroke="#0D4F83" stroke-width="2" stroke-miterlimit="10"/>
<path d="M15.7311 18.4065C20.5024 19.0766 24.8629 21.4721 27.9894 25.1405C31.1158 28.809 32.7919 33.4966 32.701 38.3182C28.0493 39.5798 23.0974 39.0927 18.7808 36.949C14.4643 34.8053 11.0819 31.1534 9.27269 26.6831C8.29907 24.1919 7.82387 21.5333 7.87408 18.8585C10.4367 18.1838 13.1084 18.0301 15.7311 18.4065Z" stroke="#0D4F83" stroke-width="2" stroke-miterlimit="10"/>
<path d="M41.6882 5.12491C43.71 7.00961 45.3096 9.25614 46.3895 11.7272C48.3459 16.2276 48.4941 21.2188 46.8061 25.7552C45.118 30.2916 41.711 34.0582 37.2305 36.3412C33.5681 32.8954 31.3515 28.3258 31.0007 23.4982C30.6499 18.6706 32.1891 13.9204 35.3269 10.1475C37.0553 8.07742 39.2198 6.36842 41.6882 5.12491Z" stroke="#0D4F83" stroke-width="2" stroke-miterlimit="10"/>
</svg>
